<svg width="140" height="140" viewBox="0 0 140 140" fill="none" xmlns="http://www.w3.org/2000/svg"><path fill-rule="evenodd" clip-rule="evenodd" d="M73.036 47.727C73.036 40 65.357 23 43.857 23s-30.714 6.182-30.714 6.182S7 41.545 7 57c0 15.454 76.786-7.727 66.036-9.273z" fill="url(#crash-reports_svg__a)"/><path fill-rule="evenodd" clip-rule="evenodd" d="M55.565 46.72C30.785 47.08 7 53.91 7 53.91c0 18.544 10.75 27.817 19.964 27.817H51C48 69.5 50 54 55.565 46.72z" fill="url(#crash-reports_svg__b)"/><path fill-rule="evenodd" clip-rule="evenodd" d="M28.5 66.273c6.785 0 12.286 5.535 12.286 12.363C40.786 85.465 35.286 91 28.5 91c-6.785 0-12.286-5.535-12.286-12.364 0-6.828 5.5-12.363 12.286-12.363z" fill="url(#crash-reports_svg__c)"/><path fill-rule="evenodd" clip-rule="evenodd" d="M28.5 73.073c3.053 0 5.529 2.49 5.529 5.563 0 3.073-2.476 5.564-5.529 5.564s-5.529-2.49-5.529-5.564c0-3.072 2.476-5.563 5.529-5.563z" fill="url(#crash-reports_svg__d)"/><path fill-rule="evenodd" clip-rule="evenodd" d="M34.5 54a2.5 2.5 0 0 1 0 5h-5a2.5 2.5 0 0 1 0-5h5zm20 0a2.5 2.5 0 0 1 0 5h-5a2.5 2.5 0 0 1 0-5h5z" fill="#fff"/><g style="mix-blend-mode:multiply" opacity=".7"><g filter="url(#crash-reports_svg__e)"><path fill-rule="evenodd" clip-rule="evenodd" d="M115.885 80.589c0-21.489-17.44-38.908-38.952-38.908-21.512 0-38.952 17.42-38.952 38.908s17.44 38.907 38.952 38.907a38.812 38.812 0 0 0 24.635-8.769c.144.218.313.425.506.617l10.505 10.487.159.151a3.998 3.998 0 0 0 5.491-.151 3.987 3.987 0 0 0 0-5.643l-10.506-10.487-.159-.151a3.807 3.807 0 0 0-.458-.353 38.721 38.721 0 0 0 8.779-24.608zm-74.453-.419c0-19.353 15.707-35.042 35.082-35.042 19.376 0 35.082 15.689 35.082 35.042 0 19.354-15.707 35.043-35.082 35.043S41.432 99.523 41.432 80.17z" fill="url(#crash-reports_svg__f)" fill-opacity=".2"/></g><g opacity=".4" filter="url(#crash-reports_svg__g)"><path fill-rule="evenodd" clip-rule="evenodd" d="M115.885 79.44c0-21.488-17.44-38.908-38.952-38.908-21.512 0-38.952 17.42-38.952 38.908s17.44 38.908 38.952 38.908a38.807 38.807 0 0 0 24.635-8.77c.144.218.313.425.506.617l11.655 11.636.159.151a3.998 3.998 0 0 0 5.491-.151 3.987 3.987 0 0 0 0-5.643l-11.656-11.636-.159-.151a3.807 3.807 0 0 0-.458-.353 38.721 38.721 0 0 0 8.779-24.608zm-74.453-.419c0-19.353 15.707-35.042 35.082-35.042 19.376 0 35.082 15.689 35.082 35.042 0 19.354-15.707 35.043-35.082 35.043s-35.082-15.69-35.082-35.043z" fill="url(#crash-reports_svg__h)" fill-opacity=".5"/></g><g filter="url(#crash-reports_svg__i)"><path fill-rule="evenodd" clip-rule="evenodd" d="M119.336 80.589c0-21.489-17.44-38.908-38.952-38.908-21.513 0-38.952 17.42-38.952 38.908s17.44 38.907 38.952 38.907a38.808 38.808 0 0 0 24.634-8.769c.145.218.314.425.506.617l10.506 10.487.159.151a3.998 3.998 0 0 0 5.491-.151 3.987 3.987 0 0 0 0-5.643l-10.506-10.487-.159-.151a3.739 3.739 0 0 0-.459-.353 38.716 38.716 0 0 0 8.78-24.608zm-74.453-.419c0-19.353 15.706-35.042 35.082-35.042 19.375 0 35.082 15.689 35.082 35.042 0 19.354-15.707 35.043-35.082 35.043-19.376 0-35.082-15.69-35.082-35.043z" fill="url(#crash-reports_svg__j)" fill-opacity=".2"/></g></g><path d="M61.363 108.972a1.302 1.302 0 0 0 .479 1.781 33.44 33.44 0 0 0 16.738 4.46c5.842 0 11.47-1.494 16.45-4.296.628-.354.85-1.149.496-1.776-.354-.628-33.802-.793-34.163-.169z" fill="url(#crash-reports_svg__k)"/><path fill-rule="evenodd" clip-rule="evenodd" d="M82 81.5c1.5 0 8.5-4.5 8.5-5s-4.5-7.5-5-8c1-2.5 7-19 6.5-20.5-.5-.5-7.5 0-7.5 0s-2.5-4-4-5c-1 0-5.5 2.5-5.5 2.5s-3.5-1-4.5-1C70 44.5 68 46 68 46c-3 0-12.5.5-14.65.769C45 57 45 68.5 49.5 81.727c2.161 0 29.5-.227 32.5-.227z" fill="url(#crash-reports_svg__l)"/><path fill-rule="evenodd" clip-rule="evenodd" d="M82 81.5c1.5 0 8.5-4.5 8.5-5s-4.5-7.5-5-8c1-2.5 7-19 6.5-20.5-.5-.5-7.5 0-7.5 0s-2.5-4-4-5c-1 0-5.5 2.5-5.5 2.5s-3.5-1-4.5-1C70 44.5 68 46 68 46c-3 0-12.5.5-14.65.769C45 57 45 68.5 49.5 81.727c2.161 0 29.5-.227 32.5-.227z" fill="url(#crash-reports_svg__m)"/><mask id="crash-reports_svg__n" style="mask-type:alpha" maskUnits="userSpaceOnUse" x="46" y="43" width="47" height="39"><path fill-rule="evenodd" clip-rule="evenodd" d="M82 81.5c1.5 0 8.5-4.5 8.5-5s-4.5-7.5-5-8c1-2.5 7-19 6.5-20.5-.5-.5-7.5 0-7.5 0s-2.5-4-4-5c-1 0-5.5 2.5-5.5 2.5s-3.5-1-4.5-1C70 44.5 68 46 68 46c-3 0-12.5.5-14.65.769C45 57 45 68.5 49.5 81.727c2.161 0 29.5-.227 32.5-.227z" fill="#fff"/><path fill-rule="evenodd" clip-rule="evenodd" d="M82 81.5c1.5 0 8.5-4.5 8.5-5s-4.5-7.5-5-8c1-2.5 7-19 6.5-20.5-.5-.5-7.5 0-7.5 0s-2.5-4-4-5c-1 0-5.5 2.5-5.5 2.5s-3.5-1-4.5-1C70 44.5 68 46 68 46c-3 0-12.5.5-14.65.769C45 57 45 68.5 49.5 81.727c2.161 0 29.5-.227 32.5-.227z" stroke="#fff"/></mask><g mask="url(#crash-reports_svg__n)" fill-rule="evenodd" clip-rule="evenodd"><path d="M90.5 76.5C85 73 52 46.5 52 46.5L65 40h33s6.66 37.856-7.5 36.5z" fill="url(#crash-reports_svg__o)"/><path d="M70.5 44.5 74 55l-6-9c.5-.5 2-4 2.5-1.5z" fill="url(#crash-reports_svg__p)"/><path d="M79.5 65c2-1.5 12-16 12.5-17-.5-1-6.5-.5-7.5 0 0 .5-5.376 17.508-5 17z" fill="url(#crash-reports_svg__q)"/><path d="M75 45.5c0 1 2 14 2.5 16 .5-3 2.5-14 3-18.5-.5-3-4.5 1-5.5 2.5z" fill="url(#crash-reports_svg__r)"/></g><path fill-rule="evenodd" clip-rule="evenodd" d="M72.5 65.273c6.785 0 12.286 5.535 12.286 12.363C84.786 80.045 84 83.5 83 85c1 .5 2.5 5-3.5 5H66c-6 0-5-4.5-4-5-1-2-1.786-5.366-1.786-7.364 0-6.828 5.5-12.363 12.286-12.363z" fill="url(#crash-reports_svg__s)"/><mask id="crash-reports_svg__t" style="mask-type:alpha" maskUnits="userSpaceOnUse" x="60" y="65" width="25" height="25"><path fill-rule="evenodd" clip-rule="evenodd" d="M72.5 65.273c6.785 0 12.286 5.535 12.286 12.363C84.786 80.045 84 83.5 83 85c1 .5 2.5 5-3.5 5H66c-6 0-5-4.5-4-5-1-2-1.786-5.366-1.786-7.364 0-6.828 5.5-12.363 12.286-12.363z" fill="#fff"/></mask><g mask="url(#crash-reports_svg__t)"><path fill-rule="evenodd" clip-rule="evenodd" d="M72.5 72.073c3.053 0 5.528 2.49 5.528 5.563 0 3.073-2.475 5.564-5.528 5.564-3.053 0-5.529-2.49-5.529-5.564 0-3.072 2.476-5.563 5.529-5.563z" fill="url(#crash-reports_svg__u)"/><g filter="url(#crash-reports_svg__v)"><path fill-rule="evenodd" clip-rule="evenodd" d="M86 87.958 75 90l-18-1.75s4.5-2.75 5-3.25 4-1.5 10.5-1.5 10 1 10.5 1.5 3 2.958 3 2.958z" fill="url(#crash-reports_svg__w)"/></g></g><path clip-rule="evenodd" d="m105.307 53.406-7.187 1.336 4.37 3.917-6.797 1.37 9.614-6.623z" stroke="url(#crash-reports_svg__x)" stroke-width="3" stroke-linecap="round" stroke-linejoin="round"/><path clip-rule="evenodd" d="m107.318 69.253-6.892-2.437 1.827 5.578-6.571-2.213 11.636-.928z" stroke="url(#crash-reports_svg__y)" stroke-width="3" stroke-linecap="round" stroke-linejoin="round"/><path fill-rule="evenodd" clip-rule="evenodd" d="M43 67.27C43 43.373 62.373 24 86.27 24c23.897 0 43.27 19.373 43.27 43.27a43.092 43.092 0 0 1-9.672 27.269l15.821 15.82.307.34a4.476 4.476 0 0 1-6.637 5.99l-15.821-15.821a43.09 43.09 0 0 1-27.268 9.672C62.373 110.54 43 91.167 43 67.27zm77.587 0c0-18.953-15.364-34.318-34.317-34.318S51.952 48.317 51.952 67.27c0 18.953 15.365 34.317 34.318 34.317 18.953 0 34.317-15.364 34.317-34.317z" fill="url(#crash-reports_svg__z)"/><g opacity=".251" filter="url(#crash-reports_svg__A)"><path d="M85.587 29.587c-19.882 0-36 16.118-36 36 0 19.883 16.118 36 36 36 .285 0 .57-.003.853-.01-18.57-.441-33.488-15.632-33.488-34.307 0-18.953 15.365-34.318 34.318-34.318 18.675 0 33.866 14.918 34.307 33.487.007-.282.01-.567.01-.852 0-19.882-16.117-36-36-36z" fill="url(#crash-reports_svg__B)"/></g><defs><linearGradient id="crash-reports_svg__a" x1="21.263" y1="69.569" x2="73.124" y2="31.914" gradientUnits="userSpaceOnUse"><stop stop-color="#D0EAFF"/><stop offset="1" stop-color="#AAC1EA"/></linearGradient><linearGradient id="crash-reports_svg__b" x1="-17.283" y1="78.431" x2="55.081" y2="133.842" gradientUnits="userSpaceOnUse"><stop stop-color="#FF8F9D"/><stop offset="1" stop-color="#DB2700"/></linearGradient><linearGradient id="crash-reports_svg__c" x1="16.214" y1="66.273" x2="16.214" y2="91" gradientUnits="userSpaceOnUse"><stop stop-color="#877D7D"/><stop offset="1" stop-color="#191919"/></linearGradient><linearGradient id="crash-reports_svg__f" x1="24.072" y1="90.414" x2="75.501" y2="159.702" gradientUnits="userSpaceOnUse"><stop stop-color="#8FADAB"/><stop offset=".632" stop-color="#1F2323"/><stop offset="1" stop-color="#DDFFFD"/><stop offset="1" stop-color="#A4B2B1"/></linearGradient><linearGradient id="crash-reports_svg__h" x1="2.703" y1="71.778" x2="65.186" y2="142.324" gradientUnits="userSpaceOnUse"><stop stop-color="#CFEFEE"/><stop offset="1"/></linearGradient><linearGradient id="crash-reports_svg__j" x1="27.523" y1="90.414" x2="78.951" y2="159.702" gradientUnits="userSpaceOnUse"><stop stop-color="#99E8E4"/><stop offset=".632" stop-color="#1F2323"/><stop offset="1" stop-color="#ABFFFB"/><stop offset="1" stop-color="#A4B2B1"/></linearGradient><linearGradient id="crash-reports_svg__k" x1="95.695" y1="108.579" x2="95.695" y2="115.213" gradientUnits="userSpaceOnUse"><stop stop-color="#fff" stop-opacity=".01"/><stop offset="1" stop-color="#EFFFCE"/></linearGradient><linearGradient id="crash-reports_svg__l" x1="23.73" y1="62.364" x2="61.955" y2="107.306" gradientUnits="userSpaceOnUse"><stop stop-color="#F0655E"/><stop offset="1" stop-color="#DB2700"/></linearGradient><linearGradient id="crash-reports_svg__m" x1="79.586" y1="38.934" x2="63.878" y2="62.579" gradientUnits="userSpaceOnUse"><stop stop-color="#FFBEBB" stop-opacity=".5"/><stop offset="1" stop-color="#FFBEBB" stop-opacity=".01"/></linearGradient><linearGradient id="crash-reports_svg__o" x1="76.413" y1="39.602" x2="68.414" y2="66.708" gradientUnits="userSpaceOnUse"><stop stop-color="#FFBEBB"/><stop offset="1" stop-color="#E44026" stop-opacity=".01"/></linearGradient><linearGradient id="crash-reports_svg__p" x1="76.118" y1="51.896" x2="76.118" y2="43.853" gradientUnits="userSpaceOnUse"><stop stop-color="#E64730" stop-opacity=".5"/><stop offset="1" stop-color="#A52307"/><stop offset="1" stop-color="#D84121"/></linearGradient><linearGradient id="crash-reports_svg__q" x1="89.237" y1="77.936" x2="105.582" y2="60.626" gradientUnits="userSpaceOnUse"><stop stop-color="#E64730" stop-opacity=".5"/><stop offset="1" stop-color="#A52307"/><stop offset="1" stop-color="#D84121"/></linearGradient><linearGradient id="crash-reports_svg__r" x1="82.84" y1="64.011" x2="89.279" y2="45.365" gradientUnits="userSpaceOnUse"><stop stop-color="#E64730" stop-opacity=".5"/><stop offset="1" stop-color="#A52307"/><stop offset="1" stop-color="#D84121"/></linearGradient><linearGradient id="crash-reports_svg__s" x1="63.148" y1="65.273" x2="63.148" y2="84.096" gradientUnits="userSpaceOnUse"><stop stop-color="#877D7D"/><stop offset="1" stop-color="#191919"/></linearGradient><linearGradient id="crash-reports_svg__x" x1="96.714" y1="68.336" x2="111.276" y2="59.403" gradientUnits="userSpaceOnUse"><stop stop-color="#FEC86D"/><stop offset="1" stop-color="#F68923"/></linearGradient><linearGradient id="crash-reports_svg__y" x1="92.412" y1="77.886" x2="109.489" y2="77.431" gradientUnits="userSpaceOnUse"><stop stop-color="#FEC86D"/><stop offset="1" stop-color="#F68923"/></linearGradient><linearGradient id="crash-reports_svg__z" x1="90" y1="165" x2="-4" y2="71" gradientUnits="userSpaceOnUse"><stop/><stop offset="1" stop-color="#979595"/></linearGradient><linearGradient id="crash-reports_svg__B" x1="85.587" y1="-6.413" x2="157.587" y2="65.587" gradientUnits="userSpaceOnUse"><stop/><stop offset="1" stop-opacity=".01"/></linearGradient><filter id="crash-reports_svg__e" x="34.855" y="38.554" width="87.671" height="87.573" filterUnits="userSpaceOnUse" color-interpolation-filters="sRGB"><feFlood flood-opacity="0" result="BackgroundImageFix"/><feBlend in="SourceGraphic" in2="BackgroundImageFix" result="shape"/><feGaussianBlur stdDeviation="1.563" result="effect1_foregroundBlur_0_242"/></filter><filter id="crash-reports_svg__g" x="25.475" y="28.025" width="107.581" height="107.481" filterUnits="userSpaceOnUse" color-interpolation-filters="sRGB"><feFlood flood-opacity="0" result="BackgroundImageFix"/><feBlend in="SourceGraphic" in2="BackgroundImageFix" result="shape"/><feGaussianBlur stdDeviation="6.253" result="effect1_foregroundBlur_0_242"/></filter><filter id="crash-reports_svg__i" x="38.305" y="38.554" width="87.671" height="87.573" filterUnits="userSpaceOnUse" color-interpolation-filters="sRGB"><feFlood flood-opacity="0" result="BackgroundImageFix"/><feBlend in="SourceGraphic" in2="BackgroundImageFix" result="shape"/><feGaussianBlur stdDeviation="1.563" result="effect1_foregroundBlur_0_242"/></filter><filter id="crash-reports_svg__v" x="54.282" y="80.782" width="34.437" height="11.937" filterUnits="userSpaceOnUse" color-interpolation-filters="sRGB"><feFlood flood-opacity="0" result="BackgroundImageFix"/><feBlend in="SourceGraphic" in2="BackgroundImageFix" result="shape"/><feGaussianBlur stdDeviation="1.359" result="effect1_foregroundBlur_0_242"/></filter><filter id="crash-reports_svg__A" x="46.869" y="26.869" width="77.437" height="77.437" filterUnits="userSpaceOnUse" color-interpolation-filters="sRGB"><feFlood flood-opacity="0" result="BackgroundImageFix"/><feBlend in="SourceGraphic" in2="BackgroundImageFix" result="shape"/><feGaussianBlur stdDeviation="1.359" result="effect1_foregroundBlur_0_242"/></filter><radialGradient id="crash-reports_svg__d" cx="0" cy="0" r="1" gradientUnits="userSpaceOnUse" gradientTransform="matrix(0 7.96634 -7.91613 0 28.5 78.636)"><stop stop-color="#6F6868"/><stop offset="1"/></radialGradient><radialGradient id="crash-reports_svg__u" cx="0" cy="0" r="1" gradientUnits="userSpaceOnUse" gradientTransform="matrix(0 7.96634 -7.91613 0 72.5 77.636)"><stop stop-color="#6F6868"/><stop offset="1"/></radialGradient><radialGradient id="crash-reports_svg__w" cx="0" cy="0" r="1" gradientUnits="userSpaceOnUse" gradientTransform="matrix(0 7.4735 -78.2393 0 72.53 83.5)"><stop stop-color="#877D7D"/><stop offset="1" stop-color="#191919" stop-opacity=".01"/></radialGradient></defs></svg>