<svg width="140" height="140" viewBox="0 0 140 140" fill="none" xmlns="http://www.w3.org/2000/svg"><g opacity=".9" fill-rule="evenodd" clip-rule="evenodd"><path d="M20 75h45v45H36c-8.837 0-16-7.163-16-16V75z" fill="url(#services-pack_svg__a)"/><path d="M20 75h45v45H36c-8.837 0-16-7.163-16-16V75z" fill="url(#services-pack_svg__b)"/><path d="M46.744 88c.69 0 1.25.556 1.25 1.24l-.001 1.202h3.757c.69 0 1.25.556 1.25 1.241v12.409c0 .686-.56 1.241-1.25 1.241h-17.5c-.69 0-1.25-.555-1.25-1.241V91.683c0-.685.56-1.24 1.25-1.24h3.773V89.24c0-.685.56-1.241 1.25-1.241h7.47zm3.756 4.924h-2.507v5.45c0 .476-.274.91-.706 1.118-.432.207-.945.15-1.32-.146l-2.98-2.35-2.928 2.344c-.375.3-.89.36-1.324.154a1.24 1.24 0 0 1-.711-1.12l-.001-5.45H35.5v9.927h15v-9.927z" fill="#FF8500"/><g opacity=".9"><path d="M65 75h45v29c0 8.837-7.163 16-16 16H65V75z" fill="url(#services-pack_svg__c)"/><path d="M65 75h45v29c0 8.837-7.163 16-16 16H65V75z" fill="url(#services-pack_svg__d)"/><path d="M65 75h45v29c0 8.837-7.163 16-16 16H65V75z" fill="url(#services-pack_svg__e)"/></g><path d="M79.104 106.673a1.26 1.26 0 0 1-1.736-.041 1.254 1.254 0 0 1-.04-1.733l3.76-3.751a1.259 1.259 0 0 1 1.77.007c.49.487.492 1.277.008 1.768l-3.76 3.751-.002-.001zm13.819-12.174-2.42 3.074c1.384 1.583.987 3.8-.796 6.481a1.256 1.256 0 0 1-1.944.18l-7.939-8.128a1.251 1.251 0 0 1 .26-1.953c2.772-1.635 4.964-1.966 6.456-.593l2.984-2.399a1.254 1.254 0 0 1-.06-.382v-2.524c0-1.117 1.356-1.676 2.146-.883l5.023 5.04c.787.79.226 2.136-.89 2.136h-2.474c-.117 0-.234-.016-.346-.049z" fill="#1A76CB"/><path d="M20 46c0-8.837 7.163-16 16-16h29v45H20V46z" fill="url(#services-pack_svg__f)"/><path d="M20 46c0-8.837 7.163-16 16-16h29v45H20V46z" fill="url(#services-pack_svg__g)"/><path d="M20 46c0-8.837 7.163-16 16-16h29v45H20V46z" fill="url(#services-pack_svg__h)"/><path d="M43 43c5.523 0 10 4.477 10 10s-4.477 10-10 10-10-4.477-10-10 4.477-10 10-10zm-5.216 8.458a1.25 1.25 0 0 0 1.766 1.767l2.2-2.199v8.224a1.25 1.25 0 1 0 2.5 0v-8.244l2.218 2.216a1.25 1.25 0 0 0 1.767-1.767l-4.332-4.332a1.246 1.246 0 0 0-.894-.367 1.25 1.25 0 0 0-.939.415l-4.288 4.288.002-.002z" fill="#7EB137"/></g><g opacity=".4" filter="url(#services-pack_svg__i)"><path fill-rule="evenodd" clip-rule="evenodd" d="m92.508 15.06.38.38 4.272 4.568a7.935 7.935 0 0 0 6.072 2.52l6.252-.216c4.384-.148 8.056 3.288 8.208 7.672v.536l-.212 6.252a7.932 7.932 0 0 0 2.516 6.072l4.564 4.276c3.204 2.996 3.376 8.024.38 11.228l-.185.193-4.763 4.46a7.935 7.935 0 0 0-2.52 6.071l.216 6.252a7.924 7.924 0 0 1-2.11 5.661l-.478.471a7.944 7.944 0 0 1-5.084 2.072h-.536l-6.252-.212a7.931 7.931 0 0 0-6.072 2.516L92.88 90.4c-2.996 3.204-8.024 3.376-11.228.38l-.38-.38L77 85.832a7.935 7.935 0 0 0-6.072-2.52l-6.252.216a7.896 7.896 0 0 1-5.11-1.642l-.514-.437-.481-.478a7.905 7.905 0 0 1-2.1-5.115v-.536l.213-6.252a7.932 7.932 0 0 0-2.516-6.072L49.6 58.72c-3.204-2.996-3.376-8.024-.38-11.228l.38-.38 4.568-4.272a7.935 7.935 0 0 0 2.52-6.072l-.22-6.248c-.148-4.384 3.288-8.056 7.672-8.208h.54l6.252.212a7.932 7.932 0 0 0 6.072-2.516l4.276-4.568c2.996-3.204 8.024-3.376 11.228-.38z" fill="#000" fill-opacity=".01"/></g><path fill-rule="evenodd" clip-rule="evenodd" d="m96.242 6.46.437.438 4.913 5.253a9.126 9.126 0 0 0 6.983 2.898l7.19-.248c5.042-.17 9.264 3.78 9.439 8.822v.617l-.244 7.19a9.12 9.12 0 0 0 2.894 6.983l5.248 4.917c3.685 3.445 3.883 9.228.437 12.912l-.213.222-5.477 5.128a9.127 9.127 0 0 0-2.898 6.983l.249 7.19a9.117 9.117 0 0 1-2.427 6.51l-.55.542a9.134 9.134 0 0 1-5.846 2.383h-.617l-7.19-.244a9.12 9.12 0 0 0-6.982 2.893l-4.918 5.253c-3.445 3.685-9.228 3.883-12.912.437l-.437-.437-4.913-5.253a9.126 9.126 0 0 0-6.983-2.898l-7.19.249a9.08 9.08 0 0 1-5.876-1.89l-.591-.502-.553-.55a9.091 9.091 0 0 1-2.415-5.881v-.617l.244-7.19a9.122 9.122 0 0 0-2.893-6.982l-5.253-4.918c-3.685-3.445-3.883-9.228-.437-12.912l.437-.437 5.253-4.913a9.126 9.126 0 0 0 2.898-6.983l-.253-7.185c-.17-5.042 3.781-9.265 8.823-9.44h.62l7.19.244a9.122 9.122 0 0 0 6.983-2.893l4.918-5.253c3.445-3.685 9.228-3.883 12.912-.437z" fill="url(#services-pack_svg__j)"/><path fill-rule="evenodd" clip-rule="evenodd" d="M78 29a9 9 0 1 1 0 18 9 9 0 0 1 0-18zm0 6a3 3 0 1 1 0 6 3 3 0 0 1 0-6zm24 18a9 9 0 0 1 9 9 9 9 0 1 1-9-9zm0 6a3 3 0 1 1 0 6 3 3 0 0 1 0-6z" fill="url(#services-pack_svg__k)"/><path fill-rule="evenodd" clip-rule="evenodd" d="M99.172 35.172a4 4 0 0 1 5.807 5.497l-.151.16-24 24a4 4 0 0 1-5.807-5.498l.15-.16 24-24z" fill="url(#services-pack_svg__l)"/><defs><linearGradient id="services-pack_svg__a" x1="42.5" y1="142.5" x2="87.5" y2="97.5" gradientUnits="userSpaceOnUse"><stop stop-color="#FFC569"/><stop offset="1" stop-color="#FF9000"/></linearGradient><linearGradient id="services-pack_svg__b" x1="42.5" y1="142.5" x2="87.5" y2="97.5" gradientUnits="userSpaceOnUse"><stop stop-color="#fff" stop-opacity=".1"/><stop offset="1" stop-color="#fff" stop-opacity=".01"/></linearGradient><linearGradient id="services-pack_svg__c" x1="87.5" y1="52.5" x2="42.5" y2="97.5" gradientUnits="userSpaceOnUse"><stop stop-color="#ECF8FF"/><stop offset="1" stop-color="#C6EAFF"/></linearGradient><linearGradient id="services-pack_svg__d" x1="42.5" y1="97.5" x2="87.5" y2="142.5" gradientUnits="userSpaceOnUse"><stop stop-color="#1E7ED8"/><stop offset="1" stop-color="#4EAAFF"/></linearGradient><linearGradient id="services-pack_svg__e" x1="132.5" y1="97.5" x2="87.5" y2="52.5" gradientUnits="userSpaceOnUse"><stop stop-color="#fff" stop-opacity=".1"/><stop offset="1" stop-color="#fff" stop-opacity=".01"/></linearGradient><linearGradient id="services-pack_svg__f" x1="87.5" y1="52.5" x2="42.5" y2="7.5" gradientUnits="userSpaceOnUse"><stop stop-color="#C7EAB7"/><stop offset="1" stop-color="#E5FEDA"/></linearGradient><linearGradient id="services-pack_svg__g" x1="-2.5" y1="52.5" x2="42.5" y2="97.5" gradientUnits="userSpaceOnUse"><stop stop-color="#A0DA4E"/><stop offset="1" stop-color="#84B63E"/></linearGradient><linearGradient id="services-pack_svg__h" x1="-2.5" y1="52.5" x2="42.5" y2="97.5" gradientUnits="userSpaceOnUse"><stop stop-color="#fff" stop-opacity=".1"/><stop offset="1" stop-color="#fff" stop-opacity=".01"/></linearGradient><linearGradient id="services-pack_svg__j" x1="182" y1="50" x2="90" y2="-42" gradientUnits="userSpaceOnUse"><stop stop-color="#B5C5DF"/><stop offset="1" stop-color="#F1E6E6"/></linearGradient><linearGradient id="services-pack_svg__k" x1="90" y1="22.516" x2="77.032" y2="64.516" gradientUnits="userSpaceOnUse"><stop stop-color="#FF8F9D"/><stop offset="1" stop-color="#DB2700"/></linearGradient><linearGradient id="services-pack_svg__l" x1="58" y1="36.508" x2="63.016" y2="68.508" gradientUnits="userSpaceOnUse"><stop stop-color="#6F6868"/><stop offset="1"/></linearGradient><filter id="services-pack_svg__i" x="35.08" y="5.92" width="104" height="104" filterUnits="userSpaceOnUse" color-interpolation-filters="sRGB"><feFlood flood-opacity="0" result="BackgroundImageFix"/><feColorMatrix in="SourceAlpha" values="0 0 0 0 0 0 0 0 0 0 0 0 0 0 0 0 0 0 127 0" result="hardAlpha"/><feOffset dy="5"/><feGaussianBlur stdDeviation="6"/><feColorMatrix values="0 0 0 0 0.188235 0 0 0 0 0.403922 0 0 0 0 0.6 0 0 0 0.2 0"/><feBlend in2="BackgroundImageFix" result="effect1_dropShadow_0_296"/><feColorMatrix in="SourceAlpha" values="0 0 0 0 0 0 0 0 0 0 0 0 0 0 0 0 0 0 127 0" result="hardAlpha"/><feOffset dy="5"/><feGaussianBlur stdDeviation="6"/><feColorMatrix values="0 0 0 0 0 0 0 0 0 0 0 0 0 0 0 0 0 0 0.08 0"/><feBlend in2="effect1_dropShadow_0_296" result="effect2_dropShadow_0_296"/><feColorMatrix in="SourceAlpha" values="0 0 0 0 0 0 0 0 0 0 0 0 0 0 0 0 0 0 127 0" result="hardAlpha"/><feOffset dy="1"/><feGaussianBlur stdDeviation=".5"/><feColorMatrix values="0 0 0 0 0 0 0 0 0 0 0 0 0 0 0 0 0 0 0.1 0"/><feBlend in2="effect2_dropShadow_0_296" result="effect3_dropShadow_0_296"/><feBlend in="SourceGraphic" in2="effect3_dropShadow_0_296" result="shape"/></filter></defs></svg>