<svg width="140" height="140" viewBox="0 0 140 140" fill="none" xmlns="http://www.w3.org/2000/svg"><path fill-rule="evenodd" clip-rule="evenodd" d="M25 92h95v19c0 8.837-7.163 16-16 16H41c-8.837 0-16-7.163-16-16V92z" fill="url(#seller-card-big_svg__a)"/><path fill-rule="evenodd" clip-rule="evenodd" d="M25 92h95v19c0 8.837-7.163 16-16 16H41c-8.837 0-16-7.163-16-16V92z" fill="url(#seller-card-big_svg__b)"/><path fill-rule="evenodd" clip-rule="evenodd" d="M40 109a4 4 0 0 1 4-4h57a4 4 0 0 1 0 8H44a4 4 0 0 1-4-4z" fill="url(#seller-card-big_svg__c)"/><path opacity=".5" fill-rule="evenodd" clip-rule="evenodd" d="M25 33c0-8.837 7.163-16 16-16h63c8.837 0 16 7.163 16 16v59H25V33z" fill="url(#seller-card-big_svg__d)"/><path opacity=".7" fill-rule="evenodd" clip-rule="evenodd" d="M68.429 36c6.875 0 11.319 2.95 13.926 6.341l.278.372.262.374c.213.313.412.628.596.944l.213.378c.07.126.136.252.2.378l.187.377.174.375c.055.125.109.249.16.372l.147.37.069.182.128.363.06.18.11.354.096.348.044.171.08.338.067.33.056.32.044.311.033.301.012.146.017.285c.003.092.005.183.005.272 6.25.886 11.607 4.432 11.607 9.75 0 3.774-1.799 7.101-5.396 8.716C91.232 72.217 88.194 75 84.5 75a7.136 7.136 0 0 1-6.918-5.318H66.418A7.136 7.136 0 0 1 59.5 75c-3.945 0-7.143-3.175-7.143-7.09 0-.213.01-.423.028-.63-2.633-2.185-4.74-5.86-5.261-11.026A2.24 2.24 0 0 1 47 55.5c0-.332.004-.661.011-.99a27.626 27.626 0 0 1-.011-.783l.036-.01c.218-5.2 1.396-9.925 3.535-14.172C54.143 37.182 60.095 36 68.43 36z" fill="#F5F5F5"/><g filter="url(#seller-card-big_svg__e)"><path fill-rule="evenodd" clip-rule="evenodd" d="M39.143 29c9.35 0 15.394 4.008 18.94 8.617l.377.506.358.508c.29.426.56.854.81 1.283l.29.514c.094.171.184.343.272.514l.254.512.236.51c.075.169.148.337.218.505l.2.502.094.248.174.493c.028.081.055.163.08.244l.15.481.132.474.06.233.108.458.091.448.076.436.06.423.045.409.017.199.022.386c.005.126.007.25.007.37C70.714 49.477 78 54.295 78 61.523c0 5.128-2.446 9.65-7.338 11.844C70.156 78.217 66.023 82 61 82c-4.526 0-8.33-3.071-9.408-7.227H36.408C35.33 78.929 31.526 82 27 82c-5.365 0-9.714-4.314-9.714-9.636 0-.289.012-.574.037-.856-3.58-2.969-6.446-7.963-7.155-14.983A3.04 3.04 0 0 1 10 55.5c0-.45.005-.899.015-1.344A37.24 37.24 0 0 1 10 53.09l.048-.014c.298-7.067 1.9-13.487 4.81-19.259C19.713 30.606 27.808 29 39.142 29z" fill="#000" fill-opacity=".01"/></g><path fill-rule="evenodd" clip-rule="evenodd" d="M61.75 48c0-6.25-6.25-20-23.75-20s-25 5-25 5-4.707 12.908-4.964 20.41C8.012 54.102 70.5 49.25 61.75 48z" fill="url(#seller-card-big_svg__f)"/><path fill-rule="evenodd" clip-rule="evenodd" d="M63 75.5c10 0 15-6.25 15-13.75S70.5 49.25 61.75 48C37.615 44.552 8 53 8 53c0 15 8.75 22.5 16.25 22.5H63z" fill="url(#seller-card-big_svg__g)"/><path fill-rule="evenodd" clip-rule="evenodd" d="M25.5 63c5.523 0 10 4.477 10 10s-4.477 10-10 10-10-4.477-10-10 4.477-10 10-10zm35 0c5.523 0 10 4.477 10 10s-4.477 10-10 10-10-4.477-10-10 4.477-10 10-10z" fill="url(#seller-card-big_svg__h)"/><path opacity=".7" fill-rule="evenodd" clip-rule="evenodd" d="M25.5 68.5a4.5 4.5 0 1 1 0 9 4.5 4.5 0 0 1 0-9z" fill="url(#seller-card-big_svg__i)"/><path opacity=".7" fill-rule="evenodd" clip-rule="evenodd" d="M60.5 68.5a4.5 4.5 0 1 1 0 9 4.5 4.5 0 0 1 0-9z" fill="url(#seller-card-big_svg__j)"/><path fill-rule="evenodd" clip-rule="evenodd" d="M31 55.5a2.5 2.5 0 0 0-2.5-2.5h-3l-.292.017A2.5 2.5 0 0 0 25.5 58h3l.292-.017A2.5 2.5 0 0 0 31 55.5zm15.5 0A2.5 2.5 0 0 0 44 53h-3l-.292.017A2.5 2.5 0 0 0 41 58h3l.292-.017A2.5 2.5 0 0 0 46.5 55.5z" fill="#fff"/><g filter="url(#seller-card-big_svg__k)"><rect x="92" y="7" width="38" height="38" rx="19" fill="#000" fill-opacity=".01"/></g><rect x="91" y="6" width="40" height="40" rx="20" fill="url(#seller-card-big_svg__l)"/><path d="M111 33V19M104 26h14" stroke="#fff" stroke-width="4" stroke-linecap="round" stroke-linejoin="round"/><defs><linearGradient id="seller-card-big_svg__a" x1="167.5" y1="109.5" x2="144.793" y2="47.866" gradientUnits="userSpaceOnUse"><stop stop-color="#CDDBF1"/><stop offset="1" stop-color="#EADFDF"/></linearGradient><linearGradient id="seller-card-big_svg__b" x1="25" y1="92" x2="25" y2="127" gradientUnits="userSpaceOnUse"><stop stop-color="#fff" stop-opacity=".704"/><stop offset="1" stop-color="#fff" stop-opacity=".01"/></linearGradient><linearGradient id="seller-card-big_svg__c" x1="72.5" y1="101" x2="70.56" y2="116.761" gradientUnits="userSpaceOnUse"><stop stop-color="#877D7D"/><stop offset="1" stop-color="#191919"/></linearGradient><linearGradient id="seller-card-big_svg__d" x1="167.5" y1="54.5" x2="94.548" y2="-37.906" gradientUnits="userSpaceOnUse"><stop stop-color="#A4B4CE"/><stop offset="1" stop-color="#F1E6E6"/></linearGradient><linearGradient id="seller-card-big_svg__f" x1="19.638" y1="58.199" x2="54.852" y2="26.127" gradientUnits="userSpaceOnUse"><stop stop-color="#D0EAFF"/><stop offset="1" stop-color="#AAC1EA"/></linearGradient><linearGradient id="seller-card-big_svg__g" x1="-27" y1="61.337" x2="-7.3" y2="110.018" gradientUnits="userSpaceOnUse"><stop stop-color="#FF8F9D"/><stop offset="1" stop-color="#DB2700"/></linearGradient><linearGradient id="seller-card-big_svg__h" x1="15.5" y1="63" x2="15.5" y2="83" gradientUnits="userSpaceOnUse"><stop stop-color="#877D7D"/><stop offset="1" stop-color="#191919"/></linearGradient><linearGradient id="seller-card-big_svg__l" x1="71" y1="26" x2="111" y2="66" gradientUnits="userSpaceOnUse"><stop stop-color="#BADC72"/><stop offset="1" stop-color="#84B63E"/></linearGradient><radialGradient id="seller-card-big_svg__i" cx="0" cy="0" r="1" gradientUnits="userSpaceOnUse" gradientTransform="matrix(0 6.44336 -6.44336 0 25.5 73)"><stop stop-color="#6F6868"/><stop offset="1"/></radialGradient><radialGradient id="seller-card-big_svg__j" cx="0" cy="0" r="1" gradientUnits="userSpaceOnUse" gradientTransform="matrix(0 6.44336 -6.44336 0 60.5 73)"><stop stop-color="#6F6868"/><stop offset="1"/></radialGradient><filter id="seller-card-big_svg__e" x="0" y="24" width="88" height="73" filterUnits="userSpaceOnUse" color-interpolation-filters="sRGB"><feFlood flood-opacity="0" result="BackgroundImageFix"/><feColorMatrix in="SourceAlpha" values="0 0 0 0 0 0 0 0 0 0 0 0 0 0 0 0 0 0 127 0" result="hardAlpha"/><feOffset dy="5"/><feGaussianBlur stdDeviation="5"/><feColorMatrix values="0 0 0 0 0.188235 0 0 0 0 0.403922 0 0 0 0 0.6 0 0 0 0.2 0"/><feBlend in2="BackgroundImageFix" result="effect1_dropShadow_0_5"/><feColorMatrix in="SourceAlpha" values="0 0 0 0 0 0 0 0 0 0 0 0 0 0 0 0 0 0 127 0" result="hardAlpha"/><feOffset dy="5"/><feGaussianBlur stdDeviation="5"/><feColorMatrix values="0 0 0 0 0 0 0 0 0 0 0 0 0 0 0 0 0 0 0.08 0"/><feBlend in2="effect1_dropShadow_0_5" result="effect2_dropShadow_0_5"/><feColorMatrix in="SourceAlpha" values="0 0 0 0 0 0 0 0 0 0 0 0 0 0 0 0 0 0 127 0" result="hardAlpha"/><feOffset dy="1"/><feGaussianBlur stdDeviation=".5"/><feColorMatrix values="0 0 0 0 0 0 0 0 0 0 0 0 0 0 0 0 0 0 0.1 0"/><feBlend in2="effect2_dropShadow_0_5" result="effect3_dropShadow_0_5"/><feBlend in="SourceGraphic" in2="effect3_dropShadow_0_5" result="shape"/></filter><filter id="seller-card-big_svg__k" x="82" y="2" width="58" height="58" filterUnits="userSpaceOnUse" color-interpolation-filters="sRGB"><feFlood flood-opacity="0" result="BackgroundImageFix"/><feColorMatrix in="SourceAlpha" values="0 0 0 0 0 0 0 0 0 0 0 0 0 0 0 0 0 0 127 0" result="hardAlpha"/><feOffset dy="5"/><feGaussianBlur stdDeviation="5"/><feColorMatrix values="0 0 0 0 0.188235 0 0 0 0 0.403922 0 0 0 0 0.6 0 0 0 0.2 0"/><feBlend in2="BackgroundImageFix" result="effect1_dropShadow_0_5"/><feColorMatrix in="SourceAlpha" values="0 0 0 0 0 0 0 0 0 0 0 0 0 0 0 0 0 0 127 0" result="hardAlpha"/><feOffset dy="5"/><feGaussianBlur stdDeviation="5"/><feColorMatrix values="0 0 0 0 0 0 0 0 0 0 0 0 0 0 0 0 0 0 0.08 0"/><feBlend in2="effect1_dropShadow_0_5" result="effect2_dropShadow_0_5"/><feColorMatrix in="SourceAlpha" values="0 0 0 0 0 0 0 0 0 0 0 0 0 0 0 0 0 0 127 0" result="hardAlpha"/><feOffset dy="1"/><feGaussianBlur stdDeviation=".5"/><feColorMatrix values="0 0 0 0 0 0 0 0 0 0 0 0 0 0 0 0 0 0 0.1 0"/><feBlend in2="effect2_dropShadow_0_5" result="effect3_dropShadow_0_5"/><feBlend in="SourceGraphic" in2="effect3_dropShadow_0_5" result="shape"/></filter></defs></svg>